<?xml version="1.0" encoding="utf-8"?>
<!-- Generator: Adobe Illustrator 26.3.1, SVG Export Plug-In . SVG Version: 6.00 Build 0)  -->
<svg version="1.1" id="Layer_1" xmlns="http://www.w3.org/2000/svg" xmlns:xlink="http://www.w3.org/1999/xlink" x="0px" y="0px"
	 viewBox="0 0 100 100" style="enable-background:new 0 0 100 100;" xml:space="preserve">
<style type="text/css">
	.st0{fill:#93CDBB;}
	.st1{fill:#7FB1A0;}
</style>
<g>
	<path class="st0" d="M51,90.9h44.5c1.3,0,2.1-1.4,1.5-2.5L51.5,9.9c-0.6-1.1-2.3-1.1-2.9,0L26.3,48.3c-0.3,0.5-0.3,1.2,0,1.7
		l23.2,40.1C49.8,90.6,50.4,90.9,51,90.9z"/>
	<path class="st1" d="M20.6,58.1L3.1,88.4c-0.6,1.1,0.2,2.5,1.5,2.5h35.1c1.3,0,2.1-1.4,1.5-2.5L23.5,58.1
		C22.9,57,21.3,57,20.6,58.1z"/>
</g>
</svg>
